<?xml version="1.0" encoding="UTF-8"?><svg id="Layer_2" xmlns="http://www.w3.org/2000/svg" viewBox="0 0 668.9606 139.221"><defs><style>.cls-1{fill:#b3ab98;}.cls-2{fill:none;stroke:#fff;stroke-miterlimit:10;}</style></defs><g id="OBJECTS"><path class="cls-1" d="M574.7954,69.8894c-40.6253-19.7607-90.4692-25.9416-130.5333-5.0664-21.0912,10.9897-38.3213,28.7301-60.1854,38.0882-28.7035,12.2857-61.914,8.5415-91.6581-.9513-29.7441-9.4926-57.5122-24.3704-87.0426-34.5083-29.5305-10.1381-62.3179-15.3334-91.762-4.9474-29.4441,10.386-53.6669,39.9743-49.6285,70.9342,.2553,1.9573,.6448,3.8802,1.1038,5.7826H668.9606c-24.81-31.0518-71.3953-58.2561-94.1652-69.3316Z"/><path class="cls-2" d="M.4957,109.4038C6.2494,65.8647,37.4135,26.45,78.9553,10.1722,125.0762-7.8999,177.5354,2.0919,224.5528,17.7813c47.0175,15.6894,92.9512,37.0125,142.4003,41.5025,44.7024,4.059,89.8205-5.9446,134.5136-1.7886,44.6931,4.1559,93.0645,28.988,101.6093,72.2468"/></g></svg>