<?xml version="1.0" encoding="UTF-8"?><svg id="Layer_2" xmlns="http://www.w3.org/2000/svg" viewBox="0 0 674.504 515.0484"><defs><style>.cls-1{fill:#fff;}.cls-2{fill:#b3ab98;}.cls-3{fill:none;stroke:#8785a2;stroke-miterlimit:10;}.cls-4{fill:#4a8071;opacity:.69;}</style></defs><g id="OBJECTS"><g><path class="cls-3" d="M156.2371,284.5488c-19.2031-5.1114-34.7296-19.4616-46.3836-35.5572-11.654-16.0957-20.1811-34.2134-30.7486-51.0422-10.5676-16.8289-23.7688-32.8409-41.5919-41.6283"/><g><path class="cls-2" d="M50.774,164.7329c-1.2264-12.827-12.6708-23.9651-25.4858-25.3106-4.3261-.4542-8.6916,.0965-13.0405,.0056s-8.9077-.9276-12.2477-3.7142c10.6818,16.899,30.7984,28.2102,50.774,29.0192Z"/><path class="cls-2" d="M66.957,180.8558c6.0346-7.2604,10.0411-17.6336,9.5887-27.0636s-4.5497-18.6388-11.2516-25.2881c.7915,1.4935,.4002,3.1957-.259,4.7521-.6592,1.5565-1.7201,2.9015-2.6586,4.3074-4.1086,6.155-5.9302,13.7999-5.0386,21.1463,.8917,7.3464,4.1575,17.1525,9.6191,22.1459Z"/><path class="cls-2" d="M72.5466,188.1608c-7.8494,4.9219-16.9291,7.6666-26.0365,5.9655-9.1073-1.701-17.5082-6.9329-23.0518-14.3562,2.2105,2.0388,5.5165,1.4984,8.3242,.4215,2.8077-1.077,5.2704-2.9188,8.072-4.0116,5.578-2.1758,11.9998-1.1385,17.4037,1.4397,5.4038,2.5782,10.7773,6.6043,15.2884,10.5411Z"/><path class="cls-2" d="M82.8421,204.0781c6.9722-5.5612,11.6201-15.0914,12.3352-23.9812s-2.3964-18.023-8.39-24.6272c-.1999,4.7104-3.2184,8.252-5.5715,12.3375-6.2811,10.9051-5.3925,25.8253,1.6263,36.2709Z"/><path class="cls-2" d="M91.7944,219.7172c-16.9083,3.988-36.1086-1.4474-48.3526-13.7714,3.1634,.0121,6.4922-2.3124,9.051-4.1723,5.978-4.3456,14.5547-3.4243,20.956,.2695s13.7942,11.8514,18.3456,17.6742Z"/><path class="cls-2" d="M100.6305,234.9761c6.6596-5.4683,11.8927-13.8895,13.1797-22.4099s-.689-17.4926-5.4363-24.684c.6144,2.5611-1.1122,4.5591-3.0315,6.3626-1.9194,1.8036-4.2853,3.0792-6.2027,4.8848-4.467,4.2064-5.943,10.85-5.2918,16.9511,.6513,6.1011,4.3166,13.277,6.7826,18.8954Z"/><path class="cls-2" d="M113.1633,253.3774c-18.0227,5.4358-39.6606-.4692-51.2996-15.2645,5.0817,.9876,9.9095-2.601,14.8273-4.2178,6.5166-2.1423,13.8283-.0975,19.5145,3.7396,5.6862,3.837,11.7525,10.6983,16.9578,15.7427Z"/><path class="cls-2" d="M121.5733,262.9995c6.4657-5.8873,11.2274-15.0138,11.5453-23.7525s-3.0157-17.5535-9.0366-23.8951c1.4954,2.2558,.7818,5.7636-.9567,7.8378-1.7384,2.0742-4.1149,3.5252-5.928,5.5346-3.921,4.3455-4.6965,10.8319-3.4331,16.5471,1.2633,5.7151,4.8261,12.6922,7.8091,17.7281Z"/><path class="cls-2" d="M133.8969,273.6981c-7.4776,4.354-16.8987,6.8342-25.4943,5.84-8.5956-.9941-16.8374-4.8375-23.1237-10.7835,1.7116,1.5307,5.0425,.6651,7.1317-.2878s3.7339-2.642,5.378-4.245,3.4146-3.2014,5.605-3.8906c3.3176-1.0439,6.8983,.1916,10.0523,1.6575,6.793,3.1571,14.0686,7.9134,20.451,11.7094Z"/><path class="cls-2" d="M146.699,281.1479c3.2864-6.5247,3.9395-15.0511,2.2752-22.1646-1.6643-7.1136-5.8945-13.598-11.7344-17.9876,1.076,2.1247,.7804,4.6256-.0397,6.8615-.82,2.236-2.1038,4.2753-2.9819,6.4891-1.8414,4.6426-1.7799,10.0081,.1674,14.6074,1.9474,4.5992,7.698,10.2854,12.3134,12.1942Z"/></g></g><path class="cls-4" d="M614.999,209.8578c-3.8116,9.878-10.2716,17.9665-17.9306,25.2675-3.3284,3.1853-6.8536,6.2095-10.5043,9.1621-17.4295,14.2085-37.1496,26.9318-45.6318,47.2782-9.8779,23.639-1.5389,51.0539,11.1843,73.3151,6.0306,10.54,13.0275,20.579,19.7381,30.7433,7.4262,11.2738,14.4768,22.7264,19.4158,35.2528,9.3948,23.8359,9.1085,54.2571-9.7527,71.6151-23.138,21.2591-60.735,12.4369-87.7204-3.6684-26.9854-16.1054-51.8949-38.6886-83.032-42.8581-21.6885-2.9169-43.4665,3.6505-64.0634,11.0769-20.597,7.4084-41.3192,15.8368-63.1867,16.8389-21.8675,1.0021-45.6676-7.1042-56.8698-25.9116-3.6325-6.1022-5.6547-12.5622-6.6211-19.2907v-.0178c-3.221-22.4044,5.279-47.6361,4.8138-71.2751-.2148-10.8264-2.3621-21.3306-5.8337-31.5128-6.0484-17.8591-16.1232-34.6981-26.8422-50.374-16.8212-24.6053-35.8792-48.3518-45.9182-76.4288-.9842-2.7378-1.8074-5.6726-2.4874-8.7684-9.4126-43.5023,11.059-119.3406,57.2456-130.7575,22.6369-5.6011,46.3117,1.181,68.4835,8.4284,22.1717,7.2296,45.256,15.0855,68.3045,11.5422,21.599-3.3284,40.3171-16.2127,60.3772-24.8916,39.3507-17.018,85.6267-17.3401,125.2279-.8948,39.6013,16.4454,72.0088,49.4613,87.7383,89.3489,7.1222,18.0737,10.8444,38.6527,3.8653,56.7802Z"/><g><g><path class="cls-2" d="M636.6865,74.9684c11.9473-6.7671,19.5964-20.4944,19.0651-34.2148-.2966-7.6553-2.908-15.0073-5.4914-22.2197,1.4465,2.6459-.6801,5.5703-2.0731,8.2448-1.3931,2.6743-3.5204,4.8783-5.3659,7.263-8.3229,10.7549-10.7415,28.1317-6.1347,40.9267Z"/><path class="cls-2" d="M632.8366,104.292c15.2922-.4505,30.3765-11.5478,34.2044-26.36,1.8244-7.059,1.8795-15.4051,7.463-20.0937-6.9188-1.4827-14.5065,3.1491-19.5255,8.1367-5.019,4.9877-8.1765,11.5107-11.0365,17.9828-2.8599,6.4721-6.7415,14.7643-11.1054,20.3342Z"/><path class="cls-2" d="M605.3523,95.9935c2.5158-2.3521,4.0782-6.3456,6.594-8.6976,5.1484-4.8135,10.3772-9.7272,13.8589-15.8554,6.5645-11.5542,5.7443-26.8996-2.0143-37.6882,2.4382,5.6047-1.7713,12.3517-5.8196,16.9307-4.0483,4.5791-9.1879,8.3239-12.0813,13.7078-4.5064,8.3854-2.5982,22.3087-.5377,31.6027Z"/><path class="cls-2" d="M559.0313,114.5175c-1.3744-5.8138,3.1458-11.4235,8.1461-14.6924,5.0004-3.2689,10.8834-5.4016,14.8988-9.8249,4.9646-5.469,6.0866-13.2878,7.3346-20.5679,1.2481-7.2801,3.2322-15.143,9.1349-19.5832-14.0434,1.2005-27.7802,9.1666-35.4599,20.9853-7.6796,11.8187-8.6627,30.3631-4.0545,43.6831Z"/><path class="cls-2" d="M582.5735,142.8241c4.3041-1.0613,8.8845-2.561,12.2403-4.8775,3.3558-2.3163,7.0198-3.5472,10.754-5.1851,5.742-2.5186,12.3013-1.7485,18.5697-1.8954,6.2683-.1469,13.2944-1.7724,16.523-7.1473-3.2438,11.4513-11.9666,20.9878-23.1259,25.1257-11.1595,4.1378-25.0359,.5479-34.9611-6.0204Z"/><path class="cls-2" d="M551.7345,185.5054c2.994-1.8649,6.0196-3.6551,8.4954-6.1477,2.476-2.4925,5.074-4.0972,7.423-6.7097,5.9676-6.637,14.4141-10.9914,23.2821-12.0024,8.8679-1.011,18.0778,1.3305,25.3861,6.454-1.944-1.1013-4.5396-.5835-6.4362,.5977-1.8967,1.1812-3.3313,2.9554-4.833,4.6099-12.8712,14.1798-34.5658,17.0865-53.3174,13.1982Z"/><path class="cls-2" d="M522.5387,214.1758c-1.8192-6.9808-4.648-10.1807-3.4783-15.7013,1.1697-5.5205,3.4416-10.969,2.9179-16.5876-1.0406-11.1628-12.5657-18.9411-14.4317-29.9958-6.1885,10.7469-10.6181,23.1257-8.2944,35.3075,2.3238,12.1817,11.3533,23.6019,23.2865,26.9772Z"/><path class="cls-2" d="M545.6171,242.6963c7.1789-2.4497,15.5246-6.7568,21.8712-10.9111,6.3466-4.1544,11.7799-10.2204,13.5757-17.5902,1.6266-6.6755,.289-14.2213,3.8977-20.0683-9.6038,3.0588-18.7634,9.7043-24.4661,18.0151s-11.1304,21.1982-14.8785,30.5545Z"/></g><path class="cls-2" d="M662.0854,70.2686c-2.0789,6.0341-5.0012,11.5281-8.6846,16.33-1.8672,2.455-3.936,4.7867-6.1508,6.9314-2.2134,2.1112-4.6277,4.0772-7.1744,5.8424-1.2403,.8796-2.5671,1.6778-3.8497,2.4494l-.0563,.0339c-1.3139,.7204-2.6822,1.471-4.0941,2.1567-2.8184,1.3882-5.665,2.6906-8.4612,3.8711-5.3826,2.2581-10.0696,3.9303-14.5102,5.1825l1.4539-1.3696,1.5887-1.6416c.3727-.3893,.747-.7753,1.1213-1.16,.6825-.7023,1.3643-1.4039,2.029-2.1231l3.0078-3.414c16.0174-18.6609,26.8816-41.0531,31.4225-64.7556l.0494-.2585-1.196-.2291-.0503,.2568c-4.6109,23.455-15.4737,45.5683-31.4147,63.9548l-2.9949,3.3671c-.6566,.7025-1.3355,1.3939-2.0138,2.0856-.3737,.3804-.7469,.761-1.117,1.1434l-1.5738,1.6124-1.6398,1.529c-.3906,.3605-.7793,.7246-1.1686,1.0893-.7067,.6621-1.4133,1.3241-2.1357,1.9694-.6043,.5054-1.211,1.0226-1.8187,1.5402-.193,.1646-.3946,.3306-.589,.4959,.462-.8008,.8403-1.5832,1.1263-2.3567,.57-1.7172,.8661-3.4459,1.0999-4.9324,.2752-1.8342,.442-3.6937,.6028-5.4918,.1277-1.4214,.2589-2.8903,.4428-4.3209,.3338-2.9584,.9137-6.1029,1.7737-9.6156,.7554-3.1047,1.7414-6.2438,2.9302-9.3329,1.2535-3.2734,2.5725-6.1925,4.0331-8.9232,2.9938-5.7218,6.7462-11.1311,11.1462-16.0912l-.3925-.3526c-4.4025,4.8318-8.1867,10.1131-11.2514,15.703-.1016,.1853-.2016,.3679-.3023,.5525-1.4695,2.6802-2.8092,5.5537-4.0921,8.7747-1.2444,3.1067-2.2853,6.2722-3.0941,9.4099-.9194,3.5505-1.5505,6.7314-1.9282,9.7248-.2064,1.4557-.3593,2.9385-.5073,4.3722-.183,1.7743-.3724,3.6097-.6638,5.3856-.2435,1.4449-.5646,3.1305-1.0987,4.6651-.4967,1.2897-1.2707,2.6224-2.3619,4.0573-.8604,1.097-1.7672,2.0665-2.6977,2.9622-2.1836,1.684-4.3924,3.2939-6.5869,4.7697-2.6428,1.8054-5.3812,3.5877-8.0297,5.3112-7.3303,4.771-14.9102,9.7047-21.5216,15.7924-2.1245,1.9603-4.2366,4.1811-6.2794,6.6005,1.6913-3.5112,3.2735-7.1293,4.3802-10.9243,.6302-2.1613,1.0453-4.3878,1.2334-6.6186,.1578-1.9597,.1265-3.9208,.0959-5.8168l-.0136-.8572c-.0601-2.7125-.2005-5.4586-.3366-8.114-.0875-1.7064-.1751-3.4127-.2424-5.1185-.1466-3.6414-.2558-8.4282,.194-13.1543,.4006-4.2969,1.3162-8.6101,2.7218-12.82,2.8168-8.3563,7.532-16.0488,13.6343-22.2442l-.3743-.3719c-3.9253,3.9063-7.3002,8.4212-9.9944,13.3352-1.582,2.8854-2.9288,5.9079-4.0145,9.0254-1.4683,4.2545-2.4412,8.623-2.8914,12.9833-.5033,4.7765-.441,9.6081-.3303,13.284,.0507,1.7167,.1214,3.4325,.1925,5.1464,.1092,2.6453,.2219,5.3809,.2543,8.0677l.0047,.7923c.0114,1.902,.024,3.8682-.148,5.7565-.2034,2.1449-.6244,4.2824-1.2512,6.3528-1.5764,5.2259-4.1257,10.1864-6.5914,14.9836-.9091,1.7693-1.8319,3.5784-2.7192,5.4114-.1231,.2188-.2517,.4298-.373,.6512-2.4168,4.408-4.4646,9.3072-6.1008,14.598-.3689,1.1983-.6888,2.4001-1.0094,3.6012-.8809-8.1641-3.4102-16.1744-5.8838-23.9876-.5128-1.6169-1.0232-3.2308-1.5188-4.8423-3.5464-11.5289-6.6203-24.9338-2.5462-36.9509l-1.2707-.4322c-4.199,12.3792-1.0748,26.0431,2.5342,37.7768,.4964,1.615,1.0095,3.2337,1.5213,4.8544,2.8695,9.0616,5.8192,18.391,6.1223,27.8377-2.2844,10.1908-3.0751,20.1421-3.4724,28.1113-.2112,4.5577-.333,9.1832-.4506,13.6559-.0557,2.1179-.1153,4.2589-.1816,6.408-.0128-.0368-.0243-.0767-.037-.1132-.9367-2.7942-2.2292-5.6295-3.9496-8.6654-1.6378-2.8412-3.4777-5.4577-5.4694-7.7778-1.3444-1.5939-2.7525-3.1733-4.1141-4.7008-.7034-.7888-1.4064-1.5773-2.103-2.3699-3.9745-4.545-8.0366-9.4834-10.2003-15.4736-.553-1.4996-.9669-3.0017-1.231-4.4676-.3121-1.673-.4497-3.1788-.4191-4.6065,.0098-3.1818,.81-6.2396,2.3316-8.8476l-.4547-.2682c-.1127,.1885-.2228,.3797-.3288,.573-1.3942,2.543-2.1551,5.4775-2.2076,8.5304-.0519,1.4665,.0668,3.0205,.3639,4.7455,.2521,1.5167,.656,3.0662,1.2003,4.6071,2.1265,6.1559,6.3529,11.4342,10.1471,15.8973,.7247,.8521,1.4592,1.6968,2.1929,2.5409,3.3128,3.8119,6.7381,7.753,9.1409,12.2613,1.6362,2.9844,2.8538,5.7561,3.7234,8.4777,.4359,1.312,.793,2.7284,1.1251,4.4612,.036,.2195,.0625,.4347,.093,.6517-.148,3.5489-.34,7.1039-.6277,10.6204-1.1413,14.1505-3.5986,25.2028-7.733,34.7834l-.105,.2427,2.4254,1.0413,.1036-.2436c3.0314-7.1223,5.1553-15.0086,6.5171-24.2692,.9668-3.5197,2.1803-7.0996,3.9504-10.3695,.0486-.0909,.0982-.1823,.148-.2731,2.7283-4.9765,6.8421-9.2084,10.8898-13.0448,1.3706-1.2906,2.7933-2.5791,4.1693-3.8251,2.8982-2.6248,5.8953-5.339,8.6118-8.2615,4.7208-5.0653,7.8055-9.9156,9.4282-14.8259l-.4999-.1695c-1.669,4.805-4.7776,9.5318-9.5034,14.4526-2.7323,2.8516-5.7535,5.5067-8.6756,8.0744-1.3999,1.2299-2.8473,2.502-4.2484,3.7822-3.9615,3.6457-8.4417,7.9919-11.4768,13.4571-.0528,.0943-.1054,.189-.1572,.2833-.6636,1.2106-1.247,2.4612-1.7785,3.7294,.1429-1.4277,.2745-2.8791,.3877-4.3714,.5796-7.5554,.7441-15.2273,.9025-22.6463,.0953-4.4567,.1935-9.0645,.3816-13.5814,.2-4.4626,.4903-8.5751,.8793-12.42,.4078-1.7626,.9098-3.6027,1.6051-5.3772,1.1325-2.9272,2.6688-5.2323,4.5649-6.8524,1.1076-.97,2.3877-1.6948,3.4945-2.2763,1.1804-.6127,2.4901-1.1793,3.8913-1.6826,2.8638-1.0284,5.791-1.6932,8.277-2.2082,5.2971-1.0271,11.3041-2.1926,16.7823-4.432,5.4576-2.1708,10.4806-5.4354,14.5231-9.4386l-.3686-.3785c-4.0439,3.885-9.0387,7.0241-14.4453,9.0807-5.445,2.1283-11.1632,3.1466-16.6939,4.1325-2.5361,.4853-5.5234,1.1171-8.4671,2.1228-1.4826,.5081-2.8138,1.0604-4.0695,1.6884-1.1792,.5968-2.5489,1.3456-3.7781,2.3864-1.5061,1.2485-2.8092,2.873-3.8917,4.8474-.1742,.3177-.339,.6502-.5018,.986,.855-5.6855,1.9898-10.7938,3.4544-15.6341,1.829-6.0231,4.2045-11.5231,7.0639-16.3536,.4786-.8248,1.0148-1.6356,1.5343-2.4203,.2935-.4443,.5875-.8883,.8729-1.337,.591-.8207,1.2134-1.6384,1.835-2.4551,.2796-.3675,.5597-.7357,.8375-1.104,1.7399-2.0841,3.5416-4.0141,5.358-5.7638,1.5226-1.2166,3.2272-2.4505,5.0879-3.4446,2.3166-1.2438,4.9498-2.0377,7.827-2.3596,2.6502-.2829,5.4635-.3282,8.3598-.1329,2.8736,.2003,5.7183,.5906,8.3851,.9738l.9731,.1386c5.2331,.7466,10.6452,1.5183,16.0221,.9781,3.0141-.2842,5.8174-.9428,8.3305-1.9565,1.2705-.5176,2.5487-1.1919,3.7999-2.0056,1.1473-.7777,2.2465-1.7158,3.2699-2.7908l-.3789-.3675c-1.0146,1.0327-2.0964,1.9275-3.2159,2.6617-1.2274,.7704-2.4801,1.4069-3.7173,1.8887-2.4629,.9496-5.2081,1.5494-8.1589,1.7814-5.2868,.4488-10.6365-.3994-15.8096-1.22l-.9577-.1513c-2.6763-.4273-5.5344-.8648-8.4523-1.1142-2.9737-.2459-5.8627-.2445-8.5879,.0057-2.1892,.2085-4.2473,.69-6.1591,1.415,4.9231-3.8633,10.1867-7.3399,15.3329-10.7262,2.6421-1.7387,5.3746-3.5371,8.0238-5.3638,1.2283-.8351,2.4621-1.7082,3.6929-2.6127,.2645-.1897,.5242-.3939,.7832-.5969,.9567-.7142,1.9135-1.432,2.86-2.1798,1.7981-1.3329,3.5244-2.8193,5.194-4.2569,.6022-.5183,1.2043-1.0368,1.8118-1.55,.3726-.3359,.7313-.6791,1.0955-1.0195,5.341-1.4001,10.8986-3.3888,17.4663-6.253,2.8093-1.2334,5.66-2.5862,8.472-4.0216,1.4381-.7228,2.8673-1.5342,4.1286-2.2505l.0699-.0428c1.2914-.8022,2.6266-1.6322,3.8792-2.546,2.5621-1.8309,4.9886-3.8642,7.2092-6.0432,2.2168-2.2071,4.2814-4.6009,6.1394-7.1175,3.6608-4.914,6.5391-10.5122,8.5519-16.6367l-.5-.1683Z"/><path class="cls-2" d="M522.8888,120.2453c1.4218-13.8616,8.784-25.6916,18.6239-29.926-1.6685,3.1408-1.3892,7.6409-.3655,11.5292,1.0236,3.8882,2.7021,7.4882,3.7525,11.3665,2.2057,8.1441,1.4617,16.9744-.7477,24.6001-1.2523,4.322-2.9526,8.3393-4.8206,12.1819-1.2959,2.6658-3.6465,10.2307-6.4796,7.1558-4.92-5.3398-8.1595-14.9708-9.4605-22.7793-.7822-4.6949-.9769-9.5029-.5025-14.1282Z"/></g><g><path class="cls-1" d="M487.3363,86.7698c-.8857-2.4997-2.6594-4.6065-4.7043-6.2951-8.7472-7.2232-25.2117-.1482-17.3934,11.3068,5.682,8.3251,27.0834,9.0607,22.0977-5.0117Z"/><path class="cls-1" d="M430.7219,101.3659c-.173-.0683-.3436-.1432-.5108-.2266-.9296-.4637-1.7175-1.1647-2.3754-1.9618-1.2595-1.5261-2.0379-3.3615-2.0085-5.3625,.0082-.5569,.0775-1.113,.2112-1.6538,.9252-3.7429,4.8495-6.4896,8.683-6.0776,2.7823,.2991,5.2026,2.01,7.2978,3.865,2.1501,1.9037,4.2533,4.3991,4.0141,7.2609-.2485,2.9726-3.1046,5.2193-6.0528,5.6733-1.5147,.2332-3.0657,.1408-4.5588-.19-.8972-.1988-1.769-.4969-2.6586-.7257-.6862-.1764-1.3816-.3408-2.0412-.6012Z"/><path class="cls-1" d="M451.7445,62.7234c4.265,.9109,9.4438-.8861,10.8573-5.0118,.7423-2.1666,.3389-4.5812-.5243-6.7025-1.4514-3.5668-4.2782-6.6341-7.8761-8.0066-3.598-1.3725-7.9368-.8905-10.9224,1.5416-8.9504,7.291,.4406,16.4653,8.4655,18.1793Z"/><path class="cls-1" d="M400.882,59.666c-.3645-4.4748,3.6828-8.8022,8.172-8.7375,3.5126,.0507,6.5878,2.3525,9.0171,4.8901,1.4499,1.5145,2.7987,3.1983,3.4696,5.1846,.6709,1.9864,.5646,4.3329-.7073,5.9997-4.9024,6.4245-19.3864-.4006-19.9514-7.3369Z"/><path class="cls-1" d="M372.9274,89.2909c-.7323-3.9046,2.3688-7.7436,6.1077-9.0863,3.7389-1.3428,7.8823-.7485,11.7434,.1864,2.1618,.5234,4.412,1.2155,5.9267,2.8443,9.2837,9.9837-20.9665,21.0458-23.7778,6.0556Z"/><path class="cls-1" d="M382.5304,25.8529c-1.259-3.2354-.2397-7.1292,2.1944-9.6047,2.434-2.4756,6.0881-3.5671,9.5427-3.2215,3.4545,.3456,6.694,2.0286,9.2607,4.3664,2.6223,2.3886,4.6851,6.076,3.452,9.4019-.9714,2.6198-3.707,4.1797-6.4127,4.877-5.3409,1.3764-15.7009,.1846-18.0371-5.8191Z"/><path class="cls-1" d="M349.8457,54.0639c-1.2067-3.2203-.2163-7.0306,2.0802-9.5904,2.2966-2.5599,5.7259-3.9351,9.1565-4.1762,3.7251-.2618,7.7042,.8627,10.1676,3.6693,2.9461,3.3566,3.0284,8.87,.1839,12.3131-4.4481,5.3841-18.8514,5.0873-21.5882-2.2158Z"/><path class="cls-1" d="M316.1404,64.2137c.6801-3.7092,4.3617-6.4147,8.1255-6.6496,3.7637-.2348,7.4364,1.6441,10.0677,4.3454,2.1558,2.2132,3.7599,5.1044,3.8669,8.1922,.5286,15.2586-24.428,7.0304-22.0601-5.888Z"/><path class="cls-1" d="M346.2483,12.5053c-1.4524-2.6497-1.8776-6.0231-.4403-8.6811,2.1397-3.9572,7.9505-4.9086,11.7802-2.5483,3.8298,2.3603,5.6606,7.1671,5.4142,11.659-.1497,2.7276-1.0684,5.5643-3.1802,7.2972-5.4207,4.4484-11.251-3.489-13.5739-7.7268Z"/><path class="cls-1" d="M310.3237,22.2856c-.13-4.1442,2.8967-8.0759,6.8338-9.3763,3.937-1.3003,8.4891-.103,11.5637,2.6788,2.5696,2.325,4.1808,5.7857,3.9279,9.2418-.2528,3.4561-2.5199,6.7788-5.7821,7.9478-5.6113,2.0109-16.3515-4.3754-16.5433-10.4921Z"/></g></g></svg>