<?xml version="1.0" encoding="UTF-8"?><svg xmlns="http://www.w3.org/2000/svg" viewBox="0 0 703.2116 363.7165"><defs><style>.cls-1{fill:#f1c8a9;}.cls-2{fill:#efc2a0;}.cls-3{fill:#be9b80;}.cls-4,.cls-5{fill:#de7593;}.cls-6{fill:#a67c75;opacity:.3;}.cls-6,.cls-5{mix-blend-mode:multiply;}.cls-5,.cls-7{opacity:.5;}.cls-8{mix-blend-mode:screen;}.cls-9{isolation:isolate;}.cls-7{fill:#ffd9c2;}.cls-10{fill:#d6ad90;opacity:.66;}</style></defs><g class="cls-9"><g id="Layer_2"><g id="OBJECTS"><g><path class="cls-1" d="M70.5971,207.6699l2.0488-26.7914c.3426-4.6635,1.5295-9.2287,3.4788-13.479l30.7811-67.2038c3.6802-8.058,9.9768-14.636,17.8375-18.7054L273.6626,4.6734c11.4206-5.8922,24.8984-6.2311,36.6014-.9123l261.4811,119.0185,131.4665,14.736-24.7318,180.1771s-116.874-47.5631-154.583-24.9311c-37.7263,22.6296-81.8263,33.2645-135.2934,26.5384-53.4694-6.7091-78.3598-37.0231-78.3598-37.0231l-66.326-8.0886c15.7659,9.7816,20.8557,25.6451,20.8557,25.6451,0,0,4.6843,9.5037-1.1923,23.7394-5.8593,14.238-16.3498,12.5879-16.3498,12.5879-20.8936,17.1126-38.9763-5.7703-38.9763-5.7703-7.0676,6.4547-17.6685-1.0244-17.6685-1.0244l-42.0162-36.1846c1.3266-3.2683,2.2452-6.5809,2.6956-9.9184l-13.2834,.8126-20.2631,.5283s-6.3622,10.2464-26.6291,7.8673c-20.2692-2.3619-20.7436-23.1431-20.7436-23.1431,0,0-15.2647-6.0353-15.8229-28.6316-.0567-2.2668,.0421-4.3896,.2618-6.3732,2.1019-19.3943,15.8116-26.6534,15.8116-26.6534Z"/><path class="cls-2" d="M54.5169,238.8242c19.1629-4.7922,39.4259-6.8411,58.884-5.7977,2.1166-8.1708,13.4284-9.8943,21.3033-6.8564,7.8749,3.0378,14.5934,9.0262,22.8814,10.6235,11.5537,2.2268,22.6684-4.5162,33.1139-9.9328,34.255-17.7628,77.4534-24.7796,115.2164-16.85,5.5041-16.3148,20.8697-28.8504,37.9575-30.9668,8.5833-1.063,17.3233,.305,25.9151-.687,10.6437-1.2288,22.1142-7.413,21.7175-19.8169-.2259-7.0637-4.4563-13.3405-10.53-16.9541-9.4089-5.5979-19.0409-8.0566-29.7865-8.2841,11.4792-2.4771,16.5665-17.2291,13.055-28.4351-3.5116-11.206-12.7933-19.4814-21.6748-27.164-9.2614-8.0114-19.2326-16.2457-29.1639-24.4675-11.1827-9.2579-11.9526-26.2151-1.5309-36.322,2.815-2.7299,5.367-5.7299,7.5982-8.9537l121.3939,55.2491c15.1085,9.3013,30.1135,18.7908,45.2154,27.9622,64.9411,39.4392,137.3371,68.8564,212.2464,81.9418l-19.8451,144.5757s-116.875-47.5632-154.5927-24.9284c-37.7177,22.6349-81.8227,33.2682-135.2885,26.5473-53.4657-6.7208-78.3547-37.0223-78.3547-37.0223l-66.3244-8.1027c15.7561,9.7853,20.8575,25.6566,20.8575,25.6566,0,0,4.6705,9.4997-1.1976,23.7335-5.868,14.2337-16.3551,12.5882-16.3551,12.5882-20.8909,17.116-38.9703-5.7613-38.9703-5.7613-7.0654,6.4468-17.6747-1.0362-17.6747-1.0362l-52.6056-45.2816-20.2603,.5152s-6.3518,10.253-26.628,7.8819c-20.276-2.3712-20.7455-23.1551-20.7455-23.1551,0,0-15.2663-6.0375-15.8217-28.63-.0156-.6356-.0128-1.2547-.0052-1.8693Z"/><path class="cls-4" d="M70.3466,269.3281s-15.2647-6.0353-15.8229-28.6316c-.0567-2.2668,.0421-4.3896,.2618-6.3732-13.5079-6.0744-30.8488-7.3165-46.715,11.1866-35.0207,40.8101,55.2736,118.2066,55.2736,118.2066,0,0,69.7226-32.4745,85.2261-70.5351,0,0,1.7751-3.9738,2.7022-9.9187l-13.29,.8129-20.2631,.5283s-15.2713,1.5276-47.3727-15.2758Z"/><path class="cls-5" d="M63.3441,363.7165s-29.2931-25.1161-48.0386-54.2758c5.7999,6.8608,11.9917,13.3533,19.2604,18.5874,10.9262,7.868,24.7737,12.6831,37.9568,9.9459,7.5106-1.5593,14.5932-5.6446,19.1592-11.8084,4.5655-6.164,6.3998-14.4409,4.2139-21.7935-2.0104-6.7622-7.0723-12.1841-12.5013-16.689-5.4292-4.505-11.4101-8.3917-16.2669-13.508-7.0897-7.4681-11.3282-17.4844-12.1086-27.7381,2.7082,17.8963,15.3276,22.8911,15.3276,22.8911,32.1014,16.8034,47.3727,15.2758,47.3727,15.2758l20.2631-.5283,13.29-.813c-.9271,5.945-2.7022,9.9188-2.7022,9.9188-15.5035,38.0606-85.2261,70.5351-85.2261,70.5351Z"/><path class="cls-10" d="M286.5509,62.5858s-21.6011-26.6306-51.8371-13.4755c-30.2359,13.155-97.4047,38.724-110.6433,54.1232-13.2386,15.3991-36.4452,62.8937-38.3604,76.8459-1.9151,13.9522,.5129,21.8528,.5129,21.8528,0,0,54.2283-15.4812,102.4597-20.0628,48.2314-4.5815,93.3248-10.1125,107.1541-15.7662,0,0-13.3595-29.422-9.2859-103.5174Z"/><path class="cls-6" d="M125.9852,191.6299s-18.4368-8.5529-32.9956-10.5513c0,0,25.5241-4.7871,32.9956,10.5513Z"/><path class="cls-3" d="M277.2743,112.8831s-19.034,9.4742-44.8211,5.2274c0,0-17.2869,29.8826-61.2172,19.7323,0,0-9.3036,35.461-22.4026,49.4926,0,0,47.6302-6.2626,64.8894-7.8139,0,0,58.2601-5.288,82.114-13.4183,0,0-6.9913-18.7404-8.2862-40.4298,0,0-5.7411-5.9077-10.2763-12.7903Z"/><path class="cls-6" d="M232.4532,118.1105s1.7369-22.4094-1.7778-39.5792c0,0,10.8669,20.3749,1.7778,39.5792Z"/><path class="cls-6" d="M171.236,137.8428s-19.2194-17.5744-36.6567-23.3671c0,0,35.7863,1.6765,36.6567,23.3671Z"/><path class="cls-6" d="M244.7267,175.7807s3.4902-22.4253-12.1547-43.527c0,0,23.9786,16.4065,12.1547,43.527Z"/><path class="cls-6" d="M195.3364,181.2291s-13.9057-4.286-23.4536-16.9275c0,0,.1063,19.0023,23.4536,16.9275Z"/><g class="cls-8"><path class="cls-4" d="M8.1199,260.8257c1.1263,.1546,2.264-.4469,2.7391-1.5411,6.4567-14.8586,21.4175-19.2503,21.5687-19.2929,1.3825-.3916,2.1854-1.8308,1.7938-3.2133-.39-1.3822-1.822-2.1876-3.2133-1.7937-.7101,.2018-17.4956,5.1297-24.9229,22.2253-.5726,1.3185,.031,2.8515,1.3495,3.4241,.2244,.0975,.4552,.16,.6851,.1916Z"/></g><path class="cls-6" d="M295.8368,166.1032s20.3121-5.3395,27.9643-10.0576c0,0-21.1647,.9891-27.9643,10.0576Z"/><path class="cls-6" d="M222.5136,279.9789c-14.419,2.4734-37.141,4.5364-71.2412,3.2837l92.6509-9.0803s-2.5081,1.3335-8.5377,2.9979c9.0034,6.8218,37.895,31.8827,16.362,58.5193-2.6226,.7466-4.5194,.4611-4.5194,.4611,0,0,13.9609-8.9929,7.7643-30.0515-1.9194-6.5227-5.3398-12.4965-9.6447-17.7594-2.8419-3.4741-6.6826-7.8844-10.2404-11.0911-3.0335,.8271-6.9544,1.7301-11.8463,2.5911,5.9758,8.1033,17.7224,30.4579-12.1684,53.5555-1.8158-1.7238-2.8348-3.0058-2.8348-3.0058,0,0,31.2476-18.4943,14.2557-50.4205Z"/><path class="cls-7" d="M116.9409,206.204s-8.9688,38.324,1.6409,57.0857c0,0-24.9355,13.6867-41.4526,5.6635-10.86-5.2755-16.125-17.2674-16.82-28.8147-.5328-8.8505,2.2378-29.3324,13.1136-32.0794,.0007,0,22.1956-5.606,43.5181-1.8551Z"/></g></g></g></g></svg>