<?xml version="1.0" encoding="UTF-8"?><svg id="Layer_2" xmlns="http://www.w3.org/2000/svg" viewBox="0 0 314.4744 497.1504"><defs><style>.cls-1{fill:#4a8071;opacity:.69;}.cls-2{fill:#ff4434;opacity:.48;}</style></defs><g id="OBJECTS"><path class="cls-2" d="M280.0507,472.5724c-22.2599-6.9812-46.2529-4.4151-69.4111-1.5968-23.1581,2.8185-47.0326,5.7739-69.503-.497-36.5973-10.2133-62.0953-42.4497-84.4859-73.1471-16.5536-22.6949-34.1109-46.5268-56.6507-62.4237v162.2426H314.4744c-8.0436-11.5126-20.8396-20.3177-34.4237-24.578Z"/><path class="cls-1" d="M0,0V165.0327c5.0434-.1572,10.0527-.8944,14.9218-2.3519,26.4076-7.9043,43.6839-35.8343,44.3118-63.3923,.6279-27.5579-12.9548-53.9683-31.7819-74.1023C20.3976,17.6425,10.8064,8.1001,0,0Z"/></g></svg>