<?xml version="1.0" encoding="UTF-8"?><svg id="Layer_2" xmlns="http://www.w3.org/2000/svg" viewBox="0 0 115.1183 488.997"><defs><style>.cls-1{fill:none;stroke:#fff;stroke-miterlimit:10;}.cls-2{fill:#ff4434;opacity:.48;}</style></defs><g id="OBJECTS"><path class="cls-2" d="M115.1183,93.3406c-23.9293,12.1497-46.8184,26.2969-63.4476,47.0484-22.034,27.4965-29.3816,70.1943-6.9789,97.3911,13.4803,16.3651,35.2184,24.6241,47.5415,41.8776,19.2364,26.9329,8.4403,65.2538-10.3072,92.5293-18.7474,27.2754-44.7039,49.8784-58.2462,80.0782-5.0242,11.2042-7.4809,24.1747-7.0414,36.7318H115.1183V93.3406Z"/><path class="cls-1" d="M113.9559,432.727c-41.5538-8.7924-78.5465-37.0856-97.9133-74.887-19.3668-37.8014-20.7197-84.3539-3.581-123.2162,10.1203-22.9478,26.252-43.2502,33.243-67.3364,6.0847-20.9633,4.7947-43.2449,4.0844-65.0619-.7103-21.8169-.6553-44.3647,7.8145-64.483C66.0734,17.6242,85.0269,.3963,106.8551,.5005"/></g></svg>