<?xml version="1.0" encoding="UTF-8"?><svg id="Layer_2" xmlns="http://www.w3.org/2000/svg" viewBox="0 0 625.4932 150.7202"><defs><style>.cls-1{fill:#b3ab98;}.cls-2{fill:none;stroke:#fff;stroke-miterlimit:10;}.cls-3{fill:#ff4434;opacity:.48;}</style></defs><g id="OBJECTS"><path class="cls-3" d="M45.4019,23.406c4.5183,20.9514,21.0627,38.8612,41.5909,45.0231,24.5898,7.381,50.8848-1.4702,74.6014-11.3019,23.7165-9.8316,48.413-20.9884,73.9344-18.1973,30.7863,3.3668,55.4676,26.1177,77.2512,48.1316,21.7836,22.014,45.1046,45.6193,75.4955,51.5797,34.0101,6.6701,69.7568-11.8826,89.7143-40.2178,20.5522-29.1797,29.9687-67.5578,20.1665-98.4234H45.1931c-1.449,7.7261-1.4504,15.7123,.2088,23.406Z"/><path class="cls-1" d="M566.6752,0c-14.5629,33.8941-49.4371,58.5396-85.5187,57.1758-27.42-1.0364-53.3508-15.0487-80.7886-15.1908-59.4266-.3079-107.3084,63.2126-166.5654,58.5477-27.7358-2.1835-52.666-19.6943-70.5501-41.7999-14.2167-17.5724-24.6318-37.9522-34.167-58.7328h-61.1876c16.2463,42.6522,48.9887,78.379,89.4143,97.0112,43.4696,20.0352,95.1215,19.9916,138.5597-.1169,16.7303-7.7449,32.3564-18.3275,49.9788-23.5221,47.5139-14.0059,96.8109,13.5715,146.1895,14.8535,51.6976,1.3423,103.0287-28.9821,128.3031-75.7966,2.0538-3.8041,3.8589-8.0612,5.15-12.4291h-58.818Z"/><path class="cls-2" d="M503.8224,3.85c1.861,60.0045-39.4338,118.9303-97.2962,138.8373-57.8625,19.9071-127.7435-.7697-164.6492-48.7173-7.6384-9.9237-14.057-20.9409-23.564-29.1742-16.101-13.9439-38.9912-17.9712-60.4594-16.8512s-42.4008,6.7553-63.6882,9.6987c-21.2873,2.9435-43.9271,2.98-63.1615-6.4201C11.7695,41.8231-2.8225,20.8757,1.1581,.1967"/></g></svg>